<!DOCTYPE svg PUBLIC "-//W3C//DTD SVG 1.1//EN" "http://www.w3.org/Graphics/SVG/1.1/DTD/svg11.dtd">
<!-- Uploaded to: SVG Repo, www.svgrepo.com, Transformed by: SVG Repo Mixer Tools -->
<svg fill="#111827" width="800px" height="800px" viewBox="-209.92 -209.92 931.84 931.84" xmlns="http://www.w3.org/2000/svg" stroke="#111827" stroke-width="0.00512">
<g id="SVGRepo_bgCarrier" stroke-width="0">
<rect x="-209.92" y="-209.92" width="931.84" height="931.84" rx="465.92" fill="#a13434" strokewidth="0"/>
</g>
<g id="SVGRepo_iconCarrier">
<path d="M376.45 32h-240.9A303.17 303.17 0 0 1 0 0v96c0 17.67 14.33 32 32 32h32v64H16c-8.84 0-16 7.16-16 16v32c0 8.84 7.16 16 16 16h48v240c0 8.84 7.16 16 16 16h32c8.84 0 16-7.16 16-16V256h256v240c0 8.84 7.16 16 16 16h32c8.84 0 16-7.16 16-16V256h48c8.84 0 16-7.16 16-16v-32c0-8.84-7.16-16-16-16h-48v-64h32c17.67 0 32-14.33 32-32V0a303.17 303.17 0 0 1-135.55 32zM128 128h96v64h-96v-64zm256 64h-96v-64h96v64z"/>
</g>
</svg>